<?xml version="1.0" encoding="UTF-8" standalone="no"?>
<!-- Created with Inkscape (http://www.inkscape.org/) -->

<svg
   xmlns:dc="http://purl.org/dc/elements/1.1/"
   xmlns:cc="http://creativecommons.org/ns#"
   xmlns:rdf="http://www.w3.org/1999/02/22-rdf-syntax-ns#"
   xmlns:svg="http://www.w3.org/2000/svg"
   xmlns="http://www.w3.org/2000/svg"
   xmlns:sodipodi="http://sodipodi.sourceforge.net/DTD/sodipodi-0.dtd"
   xmlns:inkscape="http://www.inkscape.org/namespaces/inkscape"
   width="39.282558mm"
   height="24.39282mm"
   viewBox="0 0 139.19017 86.431253"
   id="svg2"
   version="1.1"
   inkscape:version="0.91 r13725"
   sodipodi:docname="Logo.svg"
   inkscape:export-filename="/home/travis/sneq.png"
   inkscape:export-xdpi="800"
   inkscape:export-ydpi="800">
  <defs
     id="defs4">
    <inkscape:path-effect
       effect="spiro"
       id="path-effect4154"
       is_visible="true" />
  </defs>
  <sodipodi:namedview
     id="base"
     pagecolor="#ffffff"
     bordercolor="#666666"
     borderopacity="1.0"
     inkscape:pageopacity="0.0"
     inkscape:pageshadow="2"
     inkscape:zoom="4"
     inkscape:cx="15.568808"
     inkscape:cy="41.522658"
     inkscape:document-units="px"
     inkscape:current-layer="g5448"
     showgrid="false"
     inkscape:window-width="1920"
     inkscape:window-height="1056"
     inkscape:window-x="1920"
     inkscape:window-y="0"
     inkscape:window-maximized="1"
     fit-margin-top="0"
     fit-margin-left="0"
     fit-margin-right="0"
     fit-margin-bottom="0" />
  <metadata
     id="metadata7">
    <rdf:RDF>
      <cc:Work
         rdf:about="">
        <dc:format>image/svg+xml</dc:format>
        <dc:type
           rdf:resource="http://purl.org/dc/dcmitype/StillImage" />
        <dc:title></dc:title>
      </cc:Work>
    </rdf:RDF>
  </metadata>
  <g
     inkscape:label="Layer 1"
     inkscape:groupmode="layer"
     id="layer1"
     transform="translate(-82.901826,-132.30774)">
    <g
       id="g5448"
       transform="matrix(0.94229312,0.33478901,-0.33478901,0.94229312,66.382424,-39.654825)">
      <g
         id="g5452"
         transform="matrix(0.15641725,0,0,0.15641725,118.93419,136.73436)"
         inkscape:export-filename="/home/travis/path5428.png"
         inkscape:export-xdpi="800"
         inkscape:export-ydpi="800">
        <path
           d="m 132.48074,160.96994 c 4.40722,5.24471 16.97056,11.31371 16.97056,11.31371 0,0 -1.19908,3.38003 1.096,9.61834"
           id="path3342"
           style="fill:none;stroke:#9d2020;stroke-width:3.44591141;stroke-linecap:butt;stroke-linejoin:miter;stroke-miterlimit:4;stroke-dasharray:none;stroke-opacity:1"
           inkscape:connector-curvature="0"
           sodipodi:nodetypes="ccc" />
        <path
           d="m 149.28709,172.29101 c 0,0 12.9612,-2.064 14.43642,2.81985"
           id="path3344"
           style="fill:none;stroke:#9d2020;stroke-width:3.44591141;stroke-linecap:butt;stroke-linejoin:miter;stroke-miterlimit:4;stroke-dasharray:none;stroke-opacity:1"
           inkscape:connector-curvature="0"
           sodipodi:nodetypes="cc" />
      </g>
    </g>
    <flowRoot
       xml:space="preserve"
       id="flowRoot4136"
       style="font-style:normal;font-weight:normal;font-size:40px;line-height:125%;font-family:sans-serif;letter-spacing:0px;word-spacing:0px;fill:#000000;fill-opacity:1;stroke:none;stroke-width:1px;stroke-linecap:butt;stroke-linejoin:miter;stroke-opacity:1"><flowRegion
         id="flowRegion4138"><rect
           id="rect4140"
           width="142.4315"
           height="128.28937"
           x="86.873116"
           y="113.93049" /></flowRegion><flowPara
         id="flowPara4142"></flowPara></flowRoot>    <path
       style="fill:none;fill-rule:evenodd;stroke:#000000;stroke-width:1.36300755px;stroke-linecap:butt;stroke-linejoin:miter;stroke-opacity:1"
       d="m 136.29729,207.62085 -1.63257,1.42476 0.0731,-16.4696 11.84589,15.39874 -0.01,-16.40449 -1.50707,1.19063"
       id="path5053"
       inkscape:connector-curvature="0"
       sodipodi:nodetypes="cccccc"
       inkscape:export-filename="/home/travis/path5428.png"
       inkscape:export-xdpi="800"
       inkscape:export-ydpi="800" />
    <path
       style="fill:#ffff00;fill-opacity:1;fill-rule:evenodd;stroke:#000000;stroke-width:0.75;stroke-linecap:butt;stroke-linejoin:miter;stroke-miterlimit:4;stroke-dasharray:none;stroke-opacity:1"
       d="m 83.571429,201.64791 1.379564,2.11688 c 32.663837,16.67483 52.921337,-18.05056 31.201657,-34.73208 l -3.11278,-2.49818 c -21.543278,-14.43172 17.01318,-52.17798 25.66271,-16.19954 -0.81899,1.62221 -0.39938,1.25346 -0.65296,2.76531 -0.71799,2.84772 1.93178,3.75418 3.36675,5.66588 1.05886,2.38125 4.16359,2.28382 3.90941,-0.54683 -0.11725,-1.51844 0.47863,-3.35856 0.24332,-4.89095 -0.12987,-0.84576 -1.64581,-2.76325 -2.29507,-3.08299 -1.81125,-0.90142 -0.48976,-0.24935 -2.01127,-1.64998 -10.54848,-37.30465 -55.963534,0.0486 -30.54847,20.01677 l -1e-5,0 c 24.39751,17.61837 3.82924,47.89305 -24.968754,32.92252 z"
       id="path4181"
       inkscape:connector-curvature="0"
       sodipodi:nodetypes="ccccccccscccccc"
       inkscape:export-filename="/home/travis/path5428.png"
       inkscape:export-xdpi="800"
       inkscape:export-ydpi="800" />
    <flowRoot
       xml:space="preserve"
       id="flowRoot5061"
       style="font-style:normal;font-weight:normal;font-size:40px;line-height:125%;font-family:sans-serif;letter-spacing:0px;word-spacing:0px;fill:#000000;fill-opacity:1;stroke:none;stroke-width:1px;stroke-linecap:butt;stroke-linejoin:miter;stroke-opacity:1"><flowRegion
         id="flowRegion5063"><rect
           id="rect5065"
           width="70.89286"
           height="86.25"
           x="154.10715"
           y="133.43362" /></flowRegion><flowPara
         id="flowPara5067" /></flowRoot>    <flowRoot
       xml:space="preserve"
       id="flowRoot5081"
       style="font-style:normal;font-variant:normal;font-weight:normal;font-stretch:normal;font-size:40.00099564px;line-height:125%;font-family:'Latin Modern Roman Dunhill';-inkscape-font-specification:'Latin Modern Roman Dunhill, Normal';text-align:start;letter-spacing:0px;word-spacing:0px;writing-mode:lr-tb;text-anchor:start;fill:#000000;fill-opacity:1;stroke:none;stroke-width:1px;stroke-linecap:butt;stroke-linejoin:miter;stroke-opacity:1"
       transform="matrix(1.2906112,0,0,1.4568004,-22.556887,113.59589)"
       inkscape:export-filename="/home/travis/path5428.png"
       inkscape:export-xdpi="800"
       inkscape:export-ydpi="800"><flowRegion
         id="flowRegion5083"><rect
           id="rect5085"
           width="136.07144"
           height="115.35714"
           x="139.28572"
           y="27.719345"
           style="font-style:normal;font-variant:normal;font-weight:normal;font-stretch:normal;font-size:40.00099564px;line-height:125%;font-family:'Latin Modern Roman Dunhill';-inkscape-font-specification:'Latin Modern Roman Dunhill, Normal';text-align:start;writing-mode:lr-tb;text-anchor:start" /></flowRegion><flowPara
         id="flowPara5087"
         style="font-style:normal;font-variant:normal;font-weight:normal;font-stretch:normal;font-size:40.00099564px;line-height:125%;font-family:'Latin Modern Roman Dunhill';-inkscape-font-specification:'Latin Modern Roman Dunhill, Normal';text-align:start;writing-mode:lr-tb;text-anchor:start">Eq</flowPara></flowRoot>    <flowRoot
       xml:space="preserve"
       id="flowRoot5093"
       style="font-style:normal;font-weight:normal;font-size:40px;line-height:125%;font-family:sans-serif;letter-spacing:0px;word-spacing:0px;fill:#000000;fill-opacity:1;stroke:none;stroke-width:1px;stroke-linecap:butt;stroke-linejoin:miter;stroke-opacity:1"><flowRegion
         id="flowRegion5095"><rect
           id="rect5097"
           width="105"
           height="95.714287"
           x="168.57143"
           y="34.147919" /></flowRegion><flowPara
         id="flowPara5101"
         style="font-style:normal;font-variant:normal;font-weight:normal;font-stretch:normal;font-size:90px;line-height:100%;font-family:'TeX Gyre Cursor';-inkscape-font-specification:'TeX Gyre Cursor, Normal';text-align:start;writing-mode:lr-tb;text-anchor:start">Eq </flowPara></flowRoot>    <text
       xml:space="preserve"
       style="font-style:normal;font-variant:normal;font-weight:normal;font-stretch:normal;font-size:15.19530773px;line-height:125%;font-family:Amiri;-inkscape-font-specification:'Amiri, Normal';text-align:start;letter-spacing:0px;word-spacing:0px;writing-mode:lr-tb;text-anchor:start;fill:#000000;fill-opacity:1;stroke:none;stroke-width:1px;stroke-linecap:butt;stroke-linejoin:miter;stroke-opacity:1"
       x="219.74741"
       y="208.89876"
       id="text5141"
       sodipodi:linespacing="125%"
       inkscape:export-filename="/home/travis/path5428.png"
       inkscape:export-xdpi="800"
       inkscape:export-ydpi="800"><tspan
         sodipodi:role="line"
         id="tspan5143"
         x="219.74741"
         y="208.89876">.</tspan></text>
    <path
       style="fill:#000000;fill-opacity:0.87938597;stroke:#000000;stroke-width:0.1;stroke-miterlimit:4;stroke-dasharray:none;stroke-opacity:1"
       id="path5145"
       sodipodi:type="arc"
       sodipodi:cx="128.19197"
       sodipodi:cy="158.88007"
       sodipodi:rx="2.2991071"
       sodipodi:ry="1.5178572"
       sodipodi:start="0"
       sodipodi:end="0.078519396"
       sodipodi:open="true"
       d="m 130.49108,158.88007 a 2.2991071,1.5178572 0 0 1 -0.007,0.11905"
       inkscape:export-filename="/home/travis/path5428.png"
       inkscape:export-xdpi="800"
       inkscape:export-ydpi="800" />
    <circle
       style="fill:#000000;fill-opacity:1;stroke:#585858;stroke-width:0.40000001;stroke-miterlimit:4;stroke-dasharray:none;stroke-opacity:1"
       id="path5155"
       cx="140.92052"
       cy="155.92847"
       r="0.49514696"
       inkscape:export-filename="/home/travis/path5428.png"
       inkscape:export-xdpi="800"
       inkscape:export-ydpi="800" />
    <circle
       r="0.49514696"
       cy="154.81909"
       cx="143.71739"
       id="circle5166"
       style="fill:#000000;fill-opacity:1;stroke:#585858;stroke-width:0.40000001;stroke-miterlimit:4;stroke-dasharray:none;stroke-opacity:1"
       inkscape:export-filename="/home/travis/path5428.png"
       inkscape:export-xdpi="800"
       inkscape:export-ydpi="800" />
    <path
       style="fill:#000000;fill-opacity:1;stroke:none;stroke-width:0.2;stroke-miterlimit:4;stroke-dasharray:none;stroke-opacity:1"
       id="path5188"
       d="m 112.23624,137.77909 c -0.006,0.1615 -0.006,0.32317 -0.006,0.48475 5e-4,0.20831 -0.006,0.41687 0.005,0.62496 0.01,0.21816 0.0651,0.32462 0.22664,0.46737 0.14922,0.11408 0.31578,0.20159 0.48143,0.2887 0.12314,0.0672 0.18042,0.1418 0.2082,0.27723 0.0216,0.13767 0.004,0.27731 -0.0172,0.41389 -0.0189,0.11156 -0.0445,0.22144 -0.0712,0.3313 -0.0131,0.057 -0.0185,0.11516 -0.024,0.17321 0,0 -0.58237,0.29027 -0.58237,0.29027 l 0,0 c 0.005,-0.0602 0.01,-0.12049 0.0194,-0.18023 0.022,-0.11083 0.0568,-0.21874 0.0753,-0.3305 0.0263,-0.12813 0.0409,-0.26094 0.0253,-0.39135 -0.0203,-0.11775 -0.0682,-0.17183 -0.1742,-0.23021 -0.1678,-0.0916 -0.33583,-0.18535 -0.48642,-0.30399 -0.16693,-0.15333 -0.24245,-0.27918 -0.25252,-0.51037 -0.0122,-0.20918 -1e-4,-0.4191 -0.006,-0.62855 -5.4e-4,-0.15951 -4.1e-4,-0.3191 -0.006,-0.47851 0,0 0.58479,-0.29797 0.58479,-0.29797 z"
       inkscape:connector-curvature="0"
       inkscape:export-filename="/home/travis/path5428.png"
       inkscape:export-xdpi="800"
       inkscape:export-ydpi="800" />
    <path
       style="fill:#000000;fill-opacity:1;stroke:none;stroke-width:0.2;stroke-miterlimit:4;stroke-dasharray:none;stroke-opacity:1"
       id="path5190"
       d="m 105.78663,144.97796 c 0.0263,0.16248 0.0923,0.3151 0.1568,0.46542 0.0808,0.17964 0.18246,0.34889 0.2992,0.50728 0.10677,0.13932 0.25297,0.22757 0.40297,0.31204 0.15257,0.0802 0.27442,0.20014 0.38043,0.33389 0.11274,0.14026 0.19962,0.29821 0.28432,0.45624 0.0679,0.14174 0.13579,0.28342 0.17107,0.43717 0.0252,0.14556 0.0251,0.29323 0.0122,0.43987 -0.0149,0.13679 -0.0246,0.27399 -0.0296,0.41148 -3.7e-4,0.10317 -0.008,0.20688 10e-4,0.30983 0.0109,0.11086 0.0274,0.2219 0.0842,0.31923 0.0603,0.075 0.14053,0.10966 0.23243,0.12742 0.0579,0.007 0.0288,0.004 0.0871,0.008 0,0 -0.53262,0.37872 -0.53262,0.37872 l 0,0 c -0.0616,-0.008 -0.0308,-0.003 -0.0923,-0.0158 -0.10381,-0.0311 -0.19431,-0.0832 -0.25883,-0.17298 -0.0594,-0.10529 -0.0848,-0.22221 -0.0986,-0.3417 -0.0145,-0.10589 -0.002,-0.21341 -0.002,-0.31999 0.005,-0.13895 0.0139,-0.27773 0.0303,-0.41587 0.0135,-0.14047 0.0178,-0.28112 -0.006,-0.4211 -0.0299,-0.1492 -0.0904,-0.28781 -0.15661,-0.42435 -0.0835,-0.15428 -0.16968,-0.30796 -0.27978,-0.44529 -0.10325,-0.12693 -0.22161,-0.23707 -0.3682,-0.31296 -0.15611,-0.0904 -0.3046,-0.19038 -0.41574,-0.33587 -0.11907,-0.1627 -0.21765,-0.33903 -0.30506,-0.5206 -0.0674,-0.15415 -0.13307,-0.30974 -0.1765,-0.47266 0,0 0.5797,-0.30754 0.5797,-0.30754 z"
       inkscape:connector-curvature="0"
       inkscape:export-filename="/home/travis/path5428.png"
       inkscape:export-xdpi="800"
       inkscape:export-ydpi="800" />
    <path
       style="fill:#000000;fill-opacity:1;stroke:none;stroke-width:0.2;stroke-miterlimit:4;stroke-dasharray:none;stroke-opacity:1"
       id="path5238"
       d="m 103.67007,151.45314 c 0.0723,0.14673 0.14326,0.29334 0.22026,0.43819 0.0801,0.17158 0.18051,0.33261 0.29311,0.48765 0.0992,0.13684 0.19851,0.27363 0.30883,0.40316 0.0978,0.10022 0.19932,0.19715 0.30002,0.29515 0.083,0.0896 0.1891,0.15522 0.29115,0.22478 0.0941,0.0662 0.20491,0.10434 0.30708,0.15758 0.10694,0.047 0.21614,0.0892 0.32895,0.12258 0.12501,0.0285 0.2482,0.0655 0.36962,0.105 0.12706,0.0429 0.24185,0.10294 0.3489,0.17846 0.0896,0.0706 0.18552,0.13452 0.28879,0.18707 0.0153,0.006 0.0307,0.0121 0.046,0.018 0,0 -0.5864,0.35635 -0.5864,0.35635 l 0,0 c -0.0163,-0.008 -0.0326,-0.0153 -0.0489,-0.0231 -0.10274,-0.0577 -0.19957,-0.12292 -0.29159,-0.19425 -0.10318,-0.0692 -0.21481,-0.12349 -0.33587,-0.16203 -0.12298,-0.0367 -0.24621,-0.073 -0.37104,-0.10413 -0.11497,-0.0376 -0.22765,-0.0804 -0.33653,-0.13137 -0.10609,-0.0514 -0.215,-0.0978 -0.31037,-0.16595 -0.10576,-0.0712 -0.21276,-0.14208 -0.29798,-0.23488 -0.10069,-0.10045 -0.20416,-0.19831 -0.30094,-0.30166 -0.1092,-0.1321 -0.20845,-0.27068 -0.30805,-0.40898 -0.11271,-0.15826 -0.21594,-0.32076 -0.29692,-0.49511 -0.0769,-0.14407 -0.14831,-0.29086 -0.23162,-0.43161 0,0 0.61353,-0.321 0.61353,-0.321 z"
       inkscape:connector-curvature="0"
       inkscape:export-filename="/home/travis/path5428.png"
       inkscape:export-xdpi="800"
       inkscape:export-ydpi="800" />
    <path
       style="fill:#000000;fill-opacity:1;stroke:none;stroke-width:0.2;stroke-miterlimit:4;stroke-dasharray:none;stroke-opacity:1"
       id="path5270"
       d="m 116.89804,199.27825 c -0.0692,0.23806 -0.11721,0.47985 -0.14708,0.72578 -0.0188,0.22148 -0.0643,0.43917 -0.0896,0.65994 -0.0197,0.18598 -0.0232,0.37307 -0.0252,0.5599 0.002,0.20902 -0.0325,0.41607 -0.0831,0.61819 -0.0623,0.22016 -0.16313,0.42688 -0.26326,0.63182 -0.0937,0.20038 -0.17687,0.40415 -0.27955,0.60041 -0.12022,0.21177 -0.22912,0.42972 -0.36037,0.63499 -0.0239,0.0335 -0.0478,0.0671 -0.0716,0.10059 0,0 -1.19422,0.51494 -1.19422,0.51494 l 0,0 c 0.0247,-0.0316 0.0494,-0.0631 0.0741,-0.0947 0.13956,-0.19727 0.24399,-0.41249 0.36508,-0.62103 0.10151,-0.19667 0.20071,-0.39169 0.27877,-0.59922 0.10461,-0.19486 0.20035,-0.39656 0.27342,-0.6053 0.0524,-0.19176 0.10061,-0.38805 0.0955,-0.58836 0.002,-0.19118 0.004,-0.3826 0.0222,-0.57308 0.0234,-0.22218 0.067,-0.44094 0.0923,-0.66244 0.028,-0.24466 0.0646,-0.48902 0.13341,-0.72601 0,0 1.17909,-0.57645 1.17909,-0.57645 z"
       inkscape:connector-curvature="0"
       inkscape:export-filename="/home/travis/path5428.png"
       inkscape:export-xdpi="800"
       inkscape:export-ydpi="800" />
    <path
       style="fill:#000000;fill-opacity:1;stroke:none;stroke-width:0.2;stroke-miterlimit:4;stroke-dasharray:none;stroke-opacity:1"
       id="path5274"
       d="m 121.41282,191.4542 c -9.4e-4,0.2017 0.0493,0.39682 0.11282,0.58666 0.06,0.17181 0.13624,0.33744 0.20645,0.50524 0.0797,0.17114 0.14649,0.3474 0.19376,0.53019 0.0346,0.17391 0.0686,0.34764 0.0905,0.52368 0.0149,0.17322 0.0182,0.34733 0.0189,0.52112 4.3e-4,0.15312 0.002,0.30624 7.7e-4,0.45935 -0.002,0.1473 0.005,0.29476 -0.006,0.44171 -0.0202,0.18678 -0.0471,0.37231 -0.0767,0.55778 -0.0184,0.14841 -0.0365,0.29599 -0.0649,0.44286 -0.0308,0.13102 -0.0699,0.2599 -0.11733,0.38582 -0.0609,0.13607 -0.10867,0.27704 -0.15852,0.41736 -0.0455,0.12218 -0.0627,0.25073 -0.0718,0.37996 -0.0164,0.12632 0.0285,0.22893 0.091,0.3348 0.0608,0.0867 0.12334,0.18341 0.21611,0.23851 0,0 -0.78311,0.49628 -0.78311,0.49628 l 0,0 c -0.0906,-0.078 -0.16512,-0.17313 -0.23057,-0.2728 -0.0721,-0.11953 -0.13443,-0.23727 -0.11943,-0.38199 0.007,-0.13658 0.019,-0.27348 0.0626,-0.40404 0.0488,-0.14156 0.0967,-0.28339 0.15506,-0.4214 0.054,-0.11897 0.0862,-0.24457 0.12521,-0.36892 0.0282,-0.14726 0.057,-0.29313 0.0708,-0.44278 0.0304,-0.18322 0.0612,-0.36579 0.0759,-0.55114 0.0185,-0.14359 0.006,-0.28911 0.01,-0.4336 -7.4e-4,-0.15323 0.002,-0.30646 10e-4,-0.45969 -10e-4,-0.17074 6e-5,-0.34178 -0.0151,-0.51203 -0.0174,-0.17324 -0.0505,-0.34324 -0.0837,-0.51396 -0.0415,-0.17985 -0.10786,-0.35125 -0.18569,-0.51847 -0.0704,-0.17016 -0.15239,-0.33598 -0.2078,-0.51203 -0.066,-0.19782 -0.11648,-0.39973 -0.13637,-0.60779 0,0 0.82563,-0.42068 0.82563,-0.42068 z"
       inkscape:connector-curvature="0"
       inkscape:export-filename="/home/travis/path5428.png"
       inkscape:export-xdpi="800"
       inkscape:export-ydpi="800" />
    <path
       style="fill:#000000;fill-opacity:1;stroke:none;stroke-width:0.2;stroke-miterlimit:4;stroke-dasharray:none;stroke-opacity:1"
       id="path5344"
       d="m 122.35101,133.00887 c -0.0119,0.16784 -0.006,0.33394 0.0276,0.49869 0.0518,0.16387 0.17901,0.26306 0.30385,0.36878 0.1294,0.1304 0.21222,0.28068 0.25477,0.45792 0.041,0.16714 0.0101,0.33076 -0.03,0.49385 -0.0338,0.12615 -0.0752,0.24987 -0.12492,0.3706 0,0 -0.84022,0.38193 -0.84022,0.38193 l 0,0 c 0.0614,-0.11096 0.0962,-0.23325 0.13317,-0.35411 0.0386,-0.15044 0.0885,-0.29945 0.0526,-0.45646 -0.0349,-0.15867 -0.10579,-0.29338 -0.22581,-0.40595 -0.1412,-0.1169 -0.26886,-0.24428 -0.33412,-0.42059 -0.0411,-0.16913 -0.0426,-0.33994 -0.0439,-0.51328 0,0 0.82702,-0.42138 0.82702,-0.42138 z"
       inkscape:connector-curvature="0"
       inkscape:export-filename="/home/travis/path5428.png"
       inkscape:export-xdpi="800"
       inkscape:export-ydpi="800" />
    <path
       style="fill:#000000;fill-opacity:1;stroke:none;stroke-width:0.2;stroke-miterlimit:4;stroke-dasharray:none;stroke-opacity:1"
       id="path5362"
       d="m 107.23687,165.07382 c 0.0224,-0.14243 -0.43597,0.11575 -0.40195,-0.0234 0.0284,-0.11336 0.0627,-0.22488 0.0998,-0.33539 0.0367,-0.1178 0.0752,-0.23391 0.13304,-0.34349 0.0688,-0.12557 0.15071,-0.24481 0.22791,-0.3663 0.0853,-0.11847 0.14883,-0.24771 0.22353,-0.37152 0.0591,-0.10512 0.11914,-0.20923 0.18735,-0.30985 0.06,-0.0909 0.10168,-0.19017 0.15727,-0.28323 0.0615,-0.0968 0.10476,-0.20187 0.16673,-0.29843 0.0585,-0.0917 0.13053,-0.17623 0.20621,-0.25779 0.0692,-0.0874 0.18846,-0.13078 0.28533,-0.19435 l 0.54195,0.258 0.0937,0.15625 c -0.0849,0.0749 0.0615,-0.0906 -0.0217,-0.0148 -0.0736,0.0801 -0.0894,-0.0493 -0.14834,0.04 -0.0652,0.0948 -0.11203,0.19692 -0.1689,0.2959 -0.0569,0.0933 -0.10004,0.19188 -0.15502,0.2861 -0.0675,0.1012 -0.13727,0.20022 -0.19267,0.30759 -0.0777,0.12323 -0.13709,0.25469 -0.22378,0.37336 -0.0807,0.11746 -0.15121,0.24102 -0.22781,0.36047 -0.0564,0.10687 -0.10113,0.21708 -0.13288,0.33371 -0.0354,0.11026 -0.0728,0.21986 -0.1042,0.33149 -0.0366,0.13476 -0.54884,0.28812 -0.55808,0.43011 l 0.0466,-0.28916 z"
       inkscape:connector-curvature="0"
       sodipodi:nodetypes="ccccccccccccccccccccccccc"
       inkscape:export-filename="/home/travis/path5428.png"
       inkscape:export-xdpi="800"
       inkscape:export-ydpi="800" />
    <path
       style="fill:#000000;fill-opacity:1;stroke:none;stroke-width:0.2;stroke-miterlimit:4;stroke-dasharray:none;stroke-opacity:1"
       id="path5384"
       d="m 121.38086,184.13565 c 0.14341,0.19824 0.78774,0.67195 0.95179,0.85323 0.18482,0.21408 0.39789,0.39979 0.60868,0.58728 0.14261,0.12574 0.27307,0.2664 0.39066,0.41576 0.0909,0.12059 0.16984,0.24985 0.25023,0.37759 0.0616,0.11975 0.14355,0.22683 0.22695,0.33205 0.1013,0.11248 0.19111,0.2343 0.28768,0.35073 0.0971,0.13892 0.19597,0.27825 0.27755,0.42709 0.0689,0.12942 0.13318,0.26147 0.19542,0.39425 0.0367,0.15228 0.12653,0.26024 0.23393,0.36838 0.1419,0.10168 0.26561,0.22145 0.38581,0.34734 0.0588,0.0576 0.1214,0.1098 0.1878,0.15826 l -0.77885,0.49152 0,0 c -0.0673,-0.0538 -0.13283,-0.10946 -0.19284,-0.17154 -0.12087,-0.12488 -0.25093,-0.23674 -0.3864,-0.3454 -0.11361,-0.11515 -0.21369,-0.23273 -0.25289,-0.39421 -0.0604,-0.13168 -0.12449,-0.26185 -0.19092,-0.39054 -0.0763,-0.14488 -0.17361,-0.27789 -0.26824,-0.41119 -0.0973,-0.11682 -0.1883,-0.23871 -0.29078,-0.35117 -0.0859,-0.10751 -0.16796,-0.21873 -0.2311,-0.34138 -0.0788,-0.125 -0.15581,-0.25174 -0.24422,-0.37023 -0.11317,-0.14549 -0.23912,-0.2824 -0.37487,-0.40702 -0.20938,-0.19285 -0.42117,-0.38375 -0.61024,-0.59714 -0.167,-0.18585 -0.32863,-0.37588 -0.4882,-0.5681 z"
       inkscape:connector-curvature="0"
       sodipodi:nodetypes="cccccccccccccccccccccccccc"
       inkscape:export-filename="/home/travis/path5428.png"
       inkscape:export-xdpi="800"
       inkscape:export-ydpi="800" />
    <path
       style="fill:#000000;fill-opacity:1;stroke:none;stroke-width:0.2;stroke-miterlimit:4;stroke-dasharray:none;stroke-opacity:1"
       id="path5390"
       d="m 120.27725,179.20505 c 0.067,0.10878 0.14022,0.21323 0.21894,0.31384 0.10345,0.13407 0.22578,0.24961 0.35373,0.35959 0.11756,0.10394 0.23814,0.20583 0.3645,0.29903 0.13288,0.0945 0.26413,0.19173 0.40027,0.28149 0.16888,0.10793 0.3372,0.21686 0.51052,0.31754 0.15676,0.0909 0.32354,0.16217 0.48927,0.2347 0.15477,0.0671 0.30558,0.14301 0.45925,0.21275 0.15011,0.0621 0.2908,0.14402 0.4371,0.21419 0.10462,0.0521 0.21189,0.0988 0.3156,0.15263 0.0962,0.0476 0.18278,0.1114 0.26904,0.17471 0.0724,0.0556 0.15342,0.0933 0.23665,0.12901 0.0839,0.042 0.1748,0.0696 0.26555,0.0927 0.0794,0.0172 0.1463,0.0577 0.21516,0.0982 0.0419,0.0205 0.021,0.01 0.0628,0.0325 0,0 -0.38615,0.25243 -0.38615,0.25243 l 0,0 c -0.0421,-0.0224 -0.0209,-0.011 -0.0635,-0.0343 -0.0653,-0.0392 -0.13259,-0.071 -0.20723,-0.0887 -0.0914,-0.0269 -0.18294,-0.0557 -0.26851,-0.0983 -0.086,-0.0369 -0.16742,-0.0803 -0.24149,-0.13823 -0.0847,-0.0617 -0.16985,-0.12349 -0.26471,-0.16895 -0.10351,-0.0525 -0.20914,-0.10076 -0.31227,-0.15405 -0.14367,-0.0735 -0.28479,-0.15259 -0.43408,-0.21445 -0.15324,-0.0703 -0.30416,-0.14566 -0.45905,-0.21225 -0.16594,-0.0742 -0.33268,-0.14759 -0.48904,-0.24093 -0.17353,-0.10227 -0.34281,-0.21155 -0.5135,-0.31847 -0.13722,-0.0905 -0.27159,-0.18555 -0.40492,-0.28167 -0.12578,-0.0951 -0.24592,-0.1984 -0.36355,-0.30337 -0.12979,-0.11228 -0.25387,-0.23044 -0.3604,-0.36563 -0.0805,-0.10116 -0.153,-0.2079 -0.22952,-0.31184 0,0 0.3996,-0.23416 0.3996,-0.23416 z"
       inkscape:connector-curvature="0"
       inkscape:export-filename="/home/travis/path5428.png"
       inkscape:export-xdpi="800"
       inkscape:export-ydpi="800" />
    <path
       style="fill:#000000;fill-opacity:1;stroke:none;stroke-width:0.2;stroke-miterlimit:4;stroke-dasharray:none;stroke-opacity:1"
       id="path5392"
       d="m 120.00651,178.74056 c 0,0 0.31472,0.30916 0.40015,0.38368 0.0853,0.0665 0.14854,0.15316 0.21409,0.23785 0.0632,0.0774 0.13734,0.1441 0.20449,0.21776 0.0537,0.0662 0.18221,0.13204 0.24242,0.19244 0.0663,0.0656 0.12195,0.14064 0.18827,0.20622 0.081,0.0779 0.1772,0.13818 0.27232,0.19723 0.0993,0.0659 0.20713,0.11771 0.31484,0.16822 0.10263,0.0444 0.20161,0.0956 0.30041,0.14762 0.0708,0.0382 0.1345,0.0885 0.20501,0.12698 0.069,0.0419 0.14042,0.0796 0.21068,0.11931 0.0681,0.0389 0.1324,0.082 0.19288,0.13195 0.0742,0.0514 0.15333,0.0937 0.23661,0.12821 0.0868,0.0302 0.17143,0.0661 0.25799,0.0973 0.0839,0.0328 0.16717,0.0684 0.25308,0.0958 0.11307,0.0281 0.22189,0.0665 0.33003,0.10955 0.082,0.0308 0.16412,0.0615 0.24442,0.0966 0.0781,0.042 0.15557,0.0861 0.22935,0.13543 0.0635,0.0417 0.13071,0.0766 0.19672,0.11387 0.0624,0.0332 0.12401,0.067 0.18705,0.0991 0.0499,0.0163 0.0956,0.042 0.14298,0.0641 l -0.38415,0.25394 0,0 c -0.0476,-0.0229 -0.0954,-0.0448 -0.1444,-0.0645 -0.0638,-0.0316 -0.12453,-0.0685 -0.18792,-0.10088 -0.0671,-0.0369 -0.13349,-0.0751 -0.19736,-0.11753 -0.0725,-0.0469 -0.14705,-0.0914 -0.22523,-0.12826 -0.0802,-0.0332 -0.16086,-0.0655 -0.24164,-0.0974 -0.1073,-0.0439 -0.21744,-0.0767 -0.32946,-0.10644 -0.0858,-0.0294 -0.16985,-0.0637 -0.25422,-0.0969 -0.0865,-0.0328 -0.17302,-0.0656 -0.2591,-0.0995 -0.0856,-0.0385 -0.16882,-0.0822 -0.24473,-0.13783 -0.0595,-0.0471 -0.12315,-0.0875 -0.18905,-0.12513 -0.0706,-0.0392 -0.14045,-0.0797 -0.2105,-0.1199 -0.0687,-0.0409 -0.13371,-0.0877 -0.20362,-0.12665 -0.0964,-0.0537 -0.19505,-0.10283 -0.29588,-0.14772 -0.10874,-0.0524 -0.21881,-0.10321 -0.31811,-0.17257 -0.0972,-0.0624 -0.19775,-0.12212 -0.27989,-0.20436 -0.066,-0.0661 -0.1224,-0.14075 -0.1896,-0.20567 -0.0606,-0.061 -0.11823,-0.12431 -0.17312,-0.19045 -0.0673,-0.0749 -0.14056,-0.14408 -0.20464,-0.22191 -0.0634,-0.0827 -0.1269,-0.16499 -0.20886,-0.23065 -0.084,-0.0742 -0.16988,-0.14643 -0.26141,-0.21121 l 0.10278,-0.27185 z"
       inkscape:connector-curvature="0"
       sodipodi:nodetypes="ccccccccccccccccccccccccccccccccccccccccccccc"
       inkscape:export-filename="/home/travis/path5428.png"
       inkscape:export-xdpi="800"
       inkscape:export-ydpi="800" />
    <path
       style="fill:#000000;fill-opacity:1;stroke:none;stroke-width:0.2;stroke-miterlimit:4;stroke-dasharray:none;stroke-opacity:1"
       id="path5394"
       d="m 114.0798,166.90532 c -0.032,0.13891 -0.0479,0.28219 -0.068,0.42436 -0.0254,0.13877 -0.0376,0.28012 -0.0443,0.42221 -0.009,0.14835 -0.001,0.29552 0.0114,0.44289 0.005,0.14723 0.0501,0.28244 0.0865,0.41966 0.0407,0.12433 0.0287,0.25744 0.0625,0.38523 0.0363,0.13345 -0.002,0.24833 -0.0251,0.38507 -0.025,0.13623 0.0114,0.2721 -0.0528,0.38263 -0.0674,0.10927 -0.0897,0.20269 -0.15104,0.31805 -0.0674,0.12097 -0.11487,0.43261 -0.16204,0.56799 0.0644,0.14099 -0.17796,-0.16134 -0.19546,-0.0562 -0.17176,0.10957 0.44007,0.33215 -0.15621,0.40605 l -0.006,-0.12153 c 0.25346,-0.2461 -0.16785,-0.12266 -0.12735,-0.22322 0.0468,-0.13904 0.0134,-0.13521 0.0808,-0.26024 0.061,-0.11607 -0.0188,-0.20008 0.051,-0.30777 0.0667,-0.0995 0.12429,-0.20942 0.1523,-0.33809 0.0297,-0.1207 0.0329,-0.24839 0.003,-0.36997 -0.034,-0.1279 0.0657,-0.28353 0.0274,-0.40922 -0.036,-0.14264 -0.0876,-0.2811 -0.0922,-0.43374 -0.0131,-0.15131 -0.0261,-0.30138 -0.0149,-0.45397 0.004,-0.14528 0.0126,-0.28994 0.0389,-0.43174 0.0247,-0.13856 0.0336,-0.28164 0.0643,-0.41862 l 0.51743,-0.32981 z"
       inkscape:connector-curvature="0"
       sodipodi:nodetypes="ccccccccccccccccccccccccc"
       inkscape:export-filename="/home/travis/path5428.png"
       inkscape:export-xdpi="800"
       inkscape:export-ydpi="800" />
    <path
       style="fill:#000000;fill-opacity:1;stroke:none;stroke-width:0.2;stroke-miterlimit:4;stroke-dasharray:none;stroke-opacity:1"
       id="path5396"
       d="m 117.71787,174.68438 c 0.15152,-0.0174 0.30402,-0.022 0.45633,-0.0272 0.15614,-0.004 0.31233,-0.005 0.46851,-0.005 0.15889,0.002 0.31684,0.0237 0.47541,0.0342 0.14424,0.0126 0.28086,0.0552 0.41495,0.10762 0.14229,0.0654 0.25226,0.0578 0.40241,0.0376 0.1801,-0.0374 0.36267,-0.0616 0.54563,-0.0797 0.11688,-0.0249 0.23389,-0.0442 0.35323,-0.0507 0.13467,-0.01 0.26826,-0.0302 0.40327,-0.0389 0.15048,-0.007 0.30115,-0.01 0.45179,-0.01 0.1,5e-5 0.0503,1e-4 0.14894,-1.4e-4 0,0 -0.52396,0.38076 -0.52396,0.38076 l 0,0 c -0.0983,-3e-5 -0.0487,-1.7e-4 -0.14879,4.4e-4 -0.14972,0.001 -0.29961,0.002 -0.44899,0.0136 -0.13546,0.0118 -0.26991,0.0327 -0.40568,0.0408 -0.11719,0.0116 -0.23241,0.035 -0.34921,0.0495 -0.18289,0.0182 -0.36406,0.047 -0.54475,0.0804 -0.15181,0.0151 -0.2818,0.003 -0.42212,-0.0614 -0.13091,-0.0473 -0.26376,-0.0852 -0.40371,-0.093 -0.15719,-0.0133 -0.31444,-0.0338 -0.47244,-0.0302 -0.15498,5.2e-4 -0.31,-1e-5 -0.46491,0.005 -0.15396,0.006 -0.30858,0.0125 -0.46037,0.0407 0,0 0.52446,-0.39443 0.52446,-0.39443 z"
       inkscape:connector-curvature="0"
       inkscape:export-filename="/home/travis/path5428.png"
       inkscape:export-xdpi="800"
       inkscape:export-ydpi="800" />
    <path
       style="fill:#000000;fill-opacity:1;stroke:none;stroke-width:0.2;stroke-miterlimit:4;stroke-dasharray:none;stroke-opacity:1"
       id="path5398"
       d="m 117.72705,174.35975 c 0.15557,0.0375 0.31411,0.0607 0.47078,0.0935 0.18987,0.0354 0.37963,0.0711 0.57177,0.0918 0.17664,0.0324 0.35283,0.0509 0.53214,0.0425 0.15642,-0.008 0.31201,-0.0144 0.46711,-0.0361 0.16614,-0.0231 0.33158,-0.048 0.49885,-0.0628 0.15633,-0.004 0.31106,-0.019 0.46634,-0.0361 0.12516,-0.0159 0.25114,-0.019 0.37711,-0.0211 0.12327,-0.0196 0.24738,-0.0312 0.37187,-0.0391 0.0764,-0.004 0.0385,-0.005 0.11381,0.003 l -0.52954,0.3799 0,0 c -0.0702,-6.3e-4 -0.0343,-0.001 -0.1078,0.003 -0.12479,0.009 -0.24852,0.0274 -0.37327,0.0363 -0.12425,0.003 -0.24835,0.0104 -0.37192,0.0242 -0.15495,0.0163 -0.30993,0.0254 -0.46544,0.0342 -0.16727,0.016 -0.33257,0.0445 -0.49915,0.0659 -0.15588,0.018 -0.31269,0.0226 -0.46938,0.0298 -0.18005,0.002 -0.35704,-0.0233 -0.53458,-0.0519 -0.1931,-0.0232 -0.38433,-0.0595 -0.57532,-0.0958 -0.16215,-0.0305 -0.32563,-0.0547 -0.4862,-0.0928 l -0.0538,-0.56717 z"
       inkscape:connector-curvature="0"
       sodipodi:nodetypes="ccccccccccccccccccccccc"
       inkscape:export-filename="/home/travis/path5428.png"
       inkscape:export-xdpi="800"
       inkscape:export-ydpi="800" />
    <path
       style="fill:#000000;fill-opacity:1;stroke:none;stroke-width:0.2;stroke-miterlimit:4;stroke-dasharray:none;stroke-opacity:1"
       id="path5402"
       d="m 130.44051,133.63455 c -0.0234,0.12755 -0.0348,0.25612 -0.027,0.38553 0.0149,0.12997 0.0602,0.25391 0.11206,0.37319 0.054,0.11119 0.0794,0.23256 0.10317,0.35302 0.0212,0.1245 0.0343,0.2512 0.0291,0.3775 -0.0103,0.11872 -0.0435,0.23372 -0.0632,0.35106 -0.0203,0.0931 -0.0424,0.18539 -0.0539,0.28011 -0.009,0.087 -0.009,0.17452 -0.01,0.26187 -0.0119,0.10239 0.0134,0.19628 0.042,0.29307 0,0 -0.5727,0.31258 -0.5727,0.31258 l 0,0 c -0.0293,-0.10194 -0.0629,-0.201 -0.0519,-0.30907 1.8e-4,-0.0894 1.3e-4,-0.17883 0.007,-0.26799 0.009,-0.0963 0.0262,-0.19119 0.054,-0.28401 0.018,-0.11638 0.0503,-0.22966 0.0669,-0.34611 0.0115,-0.12113 -0.003,-0.24345 -0.0199,-0.36349 -0.0216,-0.11597 -0.0491,-0.23187 -0.0975,-0.33994 -0.0543,-0.12609 -0.0996,-0.2574 -0.12193,-0.39318 -0.009,-0.13256 -0.002,-0.26322 0.0157,-0.39502 0,0 0.5879,-0.28912 0.5879,-0.28912 z"
       inkscape:connector-curvature="0"
       inkscape:export-filename="/home/travis/path5428.png"
       inkscape:export-xdpi="800"
       inkscape:export-ydpi="800" />
    <path
       style="fill:#000000;fill-opacity:1;stroke:none;stroke-width:0.2;stroke-miterlimit:4;stroke-dasharray:none;stroke-opacity:1"
       id="path5410"
       d="m 90.484063,203.31789 c 0.06097,0.17548 0.131199,0.3478 0.195431,0.52237 0.05609,0.159 0.129,0.31125 0.191397,0.46783 0.05501,0.17751 0.113054,0.35411 0.165284,0.53248 0.0383,0.15446 0.07203,0.30975 0.0948,0.4673 0.01148,0.15211 0.04099,0.30413 0.03536,0.45682 -0.0023,0.0754 -0.03172,0.14189 -0.06263,0.20894 0,0 -0.840709,0.38037 -0.840709,0.38037 l 0,0 c 0.0314,-0.0579 0.072,-0.10976 0.07667,-0.17771 0.02342,-0.1454 -0.01967,-0.29309 -0.02229,-0.43958 -0.02066,-0.15405 -0.05838,-0.30406 -0.08905,-0.45623 -0.04758,-0.1766 -0.106952,-0.34971 -0.15986,-0.52473 -0.06181,-0.15775 -0.140019,-0.30869 -0.193211,-0.46967 -0.06379,-0.17686 -0.124906,-0.35411 -0.204422,-0.5249 0,0 0.813222,-0.44329 0.813222,-0.44329 z"
       inkscape:connector-curvature="0"
       inkscape:export-filename="/home/travis/path5428.png"
       inkscape:export-xdpi="800"
       inkscape:export-ydpi="800" />
    <path
       style="fill:#000000;fill-opacity:1;stroke:none;stroke-width:0.2;stroke-miterlimit:4;stroke-dasharray:none;stroke-opacity:1"
       id="path5416"
       d="m 99.792216,205.38589 c 0.0093,0.17745 0.04659,0.34968 0.09736,0.5193 0.04694,0.14056 0.113374,0.27293 0.176644,0.40649 0.0726,0.11801 0.10786,0.24942 0.14438,0.38124 0.0455,0.13834 0.066,0.27744 0.048,0.422 -0.0308,0.15337 -0.0802,0.30231 -0.14104,0.44618 -0.0474,0.11043 -0.122845,0.20195 -0.20052,0.29192 0,0 -0.846631,0.35763 -0.846631,0.35763 l 0,0 c 0.07499,-0.0857 0.158709,-0.16362 0.209895,-0.26738 0.06726,-0.13494 0.110722,-0.27918 0.149292,-0.42462 0.03293,-0.13072 0.01004,-0.25604 -0.03025,-0.38341 -0.03738,-0.12643 -0.06276,-0.25608 -0.136206,-0.36897 -0.06415,-0.1384 -0.132855,-0.27485 -0.180851,-0.42012 -0.05037,-0.17332 -0.0899,-0.34821 -0.109514,-0.52796 0,0 0.81948,-0.4323 0.81948,-0.4323 z"
       inkscape:connector-curvature="0"
       inkscape:export-filename="/home/travis/path5428.png"
       inkscape:export-xdpi="800"
       inkscape:export-ydpi="800" />
    <path
       style="fill:#000000;fill-opacity:1;stroke:none;stroke-width:0.2;stroke-miterlimit:4;stroke-dasharray:none;stroke-opacity:1"
       id="path5420"
       d="m 108.02399,207.59054 c 0.01,-0.20814 0.0343,-0.41527 0.0496,-0.62309 0.0172,-0.17809 0.0618,-0.35424 0.12893,-0.51997 0.0434,-0.10167 0.12323,-0.18026 0.16013,-0.28506 0.0223,-0.0633 0.0378,-0.14674 0.0516,-0.21173 0.0245,-0.20053 0.11841,-0.35503 0.24393,-0.50667 0.15963,-0.17908 0.29486,-0.37478 0.37593,-0.6011 0.0425,-0.14317 0.0689,-0.28785 0.0285,-0.4332 -0.007,-0.0213 -0.0136,-0.0426 -0.0204,-0.0638 0,0 0.80924,-0.4446 0.80924,-0.4446 l 0,0 c 0.007,0.022 0.0142,0.044 0.0213,0.066 0.0123,0.0401 0.0359,0.10935 0.0392,0.15081 0.009,0.11153 -0.0297,0.22708 -0.0484,0.33519 -0.0734,0.23696 -0.20034,0.44328 -0.3619,0.63178 -0.11823,0.14391 -0.24011,0.27173 -0.26546,0.46634 -0.0147,0.0842 -0.0362,0.24633 -0.0658,0.32359 -0.0272,0.0712 -0.10161,0.11848 -0.12984,0.18959 -0.0784,0.15297 -0.12127,0.32426 -0.14874,0.49316 -0.014,0.20364 -0.0439,0.40728 -0.0409,0.61136 0,0 -0.82702,0.42139 -0.82702,0.42139 z"
       inkscape:connector-curvature="0"
       inkscape:export-filename="/home/travis/path5428.png"
       inkscape:export-xdpi="800"
       inkscape:export-ydpi="800" />
    <path
       style="fill:#000000;fill-opacity:1;stroke:none;stroke-width:0.2;stroke-miterlimit:4;stroke-dasharray:none;stroke-opacity:1"
       id="path5428"
       d="m 136.4831,144.5636 c -0.0318,-0.12502 -0.054,-0.252 -0.0689,-0.38005 -0.01,-0.11283 -0.0124,-0.22612 -0.0124,-0.33933 0.006,-0.10384 0.0247,-0.20636 0.0345,-0.30989 0.01,-0.0959 0.0421,-0.18696 0.0727,-0.27769 0.0383,-0.0993 0.10608,-0.18296 0.1642,-0.2711 0.0566,-0.089 0.11441,-0.17732 0.17267,-0.26529 0.0534,-0.0871 0.10998,-0.1726 0.15927,-0.26211 0.0383,-0.0812 0.0547,-0.17067 0.0752,-0.25761 0.0195,-0.0852 0.0241,-0.17252 0.027,-0.25953 -0.003,-0.0921 0.01,-0.18252 0.0297,-0.2721 0.0216,-0.0894 0.0543,-0.17545 0.0776,-0.26432 0.0176,-0.0879 0.042,-0.17393 0.0563,-0.26247 0.005,-0.0856 -0.0101,-0.17108 -0.0304,-0.25395 -0.0283,-0.09 -0.071,-0.17386 -0.0991,-0.26389 -0.0268,-0.0875 -0.0256,-0.17937 -0.0362,-0.26931 -0.0172,-0.0885 -0.029,-0.17758 -0.0356,-0.26742 0,0 0.5805,-0.30059 0.5805,-0.30059 l 0,0 c 0.005,0.0883 0.0145,0.17627 0.0331,0.26291 0.0146,0.0865 0.008,0.1756 0.0314,0.26102 0.0262,0.0918 0.0703,0.17603 0.10058,0.26644 0.0232,0.0907 0.0391,0.18248 0.0422,0.27638 -0.0115,0.091 -0.0353,0.17844 -0.0538,0.26786 -0.0195,0.0907 -0.0534,0.17638 -0.0769,0.26601 -0.0264,0.0833 -0.0386,0.1709 -0.0362,0.25823 -0.002,0.0906 -0.005,0.18152 -0.0217,0.2708 -0.0191,0.0918 -0.0408,0.18356 -0.0691,0.27272 -0.0436,0.0943 -0.10512,0.17863 -0.1572,0.26823 -0.0548,0.09 -0.11693,0.17546 -0.1728,0.26484 -0.0526,0.0888 -0.11967,0.16776 -0.16879,0.2585 -0.0341,0.0847 -0.0612,0.17296 -0.0803,0.26218 -0.009,0.1023 -0.0245,0.2035 -0.0386,0.30513 8.5e-4,0.11135 -2.5e-4,0.22288 0.009,0.33397 0.0112,0.12331 0.0277,0.247 0.0668,0.36498 0,0 -0.57459,0.31645 -0.57459,0.31645 z"
       inkscape:connector-curvature="0"
       inkscape:export-filename="/home/travis/path5428.png"
       inkscape:export-xdpi="800"
       inkscape:export-ydpi="800" />
  </g>
</svg>
